<svg id="Réteg_1" data-name="Réteg 1" xmlns="http://www.w3.org/2000/svg" viewBox="0 0 595.28 841.89"><defs><style>.cls-1{fill:none;stroke:#fff;stroke-linecap:round;stroke-linejoin:round;stroke-width:12px;}.cls-2{fill:#fff;}</style></defs><path class="cls-1" d="M130.15,512l42.58-91.44S153,432.59,130.15,432.59a83.83,83.83,0,0,1-42.57-12.08Z"/><line class="cls-1" x1="130.15" y1="432.59" x2="130.15" y2="19.78"/><path class="cls-2" d="M236.57,427a6,6,0,0,0-7.12-.65c-.17.1-15.23,9.14-33.45,10.9V30.78a6,6,0,0,0-12,0V437.33a79.06,79.06,0,0,1-33.24-10.81A6,6,0,0,0,142,434l42.57,91.44a6,6,0,0,0,10.88,0L238,434A6,6,0,0,0,236.57,427ZM190,508.73l-30.08-64.6a83.87,83.87,0,0,0,60.29-.29Z"/></svg>